<svg xmlns="http://www.w3.org/2000/svg" viewBox="0 0 360 140" width="360" height="140">
  <defs>
    <linearGradient id="waveBtn1" x1="0%" y1="0%" x2="100%" y2="100%">
      <stop offset="0%" stop-color="#5EEAD4"/>
      <stop offset="100%" stop-color="#0284C7"/>
    </linearGradient>
    <linearGradient id="waveBtn2" x1="0%" y1="0%" x2="100%" y2="100%">
      <stop offset="0%" stop-color="#99F6E4"/>
      <stop offset="100%" stop-color="#0EA5E9"/>
    </linearGradient>
    <linearGradient id="waveBtn3" x1="0%" y1="0%" x2="100%" y2="100%">
      <stop offset="0%" stop-color="#CCFBF1"/>
      <stop offset="100%" stop-color="#38BDF8"/>
    </linearGradient>
  </defs>

  <!-- Fond avec ombre comme bouton -->
  <rect x="5" y="5" width="350" height="130" rx="25" ry="25"
        fill="#ffffff" stroke="#e2e8f0" stroke-width="2"
        filter="url(#shadow)" />

  <!-- Ombre -->
  <filter id="shadow" x="-50%" y="-50%" width="200%" height="200%">
    <feDropShadow dx="0" dy="4" stdDeviation="6" flood-color="#0EA5E9" flood-opacity="0.4"/>
  </filter>

  <!-- Vagues à l'intérieur -->
  <clipPath id="clipBtn">
    <rect x="5" y="5" width="350" height="130" rx="25" ry="25"/>
  </clipPath>

  <g clip-path="url(#clipBtn)">
    <path d="M0 60 C40 20, 100 100, 180 40 S300 100, 360 50 L360 140 L0 140 Z"
          fill="url(#waveBtn1)" opacity="0.9"/>
    <path d="M0 80 C60 40, 140 120, 220 50 S340 110, 360 70 L360 140 L0 140 Z"
          fill="url(#waveBtn2)" opacity="0.85"/>
    <path d="M0 100 C50 60, 150 140, 250 70 S360 130, 360 90 L360 140 L0 140 Z"
          fill="url(#waveBtn3)" opacity="0.8"/>
  </g>
</svg>